<svg xmlns="http://www.w3.org/2000/svg" xmlns:xlink="http://www.w3.org/1999/xlink" width="5000" zoomAndPan="magnify" viewBox="0 0 3750 1499.999933" height="2000" preserveAspectRatio="xMidYMid meet" version="1.0"><defs><g/><clipPath id="389aa86dd2"><path d="M 749.316406 638.144531 L 2713.265625 638.144531 L 2713.265625 788.511719 L 749.316406 788.511719 Z M 749.316406 638.144531 " clip-rule="nonzero"/></clipPath></defs><rect x="-375" width="4500" fill="#ffffff" y="-149.999993" height="1799.99992" fill-opacity="1"/><rect x="-375" width="4500" fill="#ffcc00" y="-149.999993" height="1799.99992" fill-opacity="1"/><g fill="#231f20" fill-opacity="1"><g transform="translate(422.155833, 1082.123052)"><g><path d="M 15.890625 0 L 15.890625 -6.359375 C 30.734375 -10.171875 41.332031 -19.070312 47.6875 -33.0625 C 54.050781 -47.050781 57.234375 -65.707031 57.234375 -89.03125 L 57.234375 -635.9375 C 57.234375 -659.675781 54.050781 -678.4375 47.6875 -692.21875 C 41.332031 -706 30.734375 -714.796875 15.890625 -718.609375 L 15.890625 -724.96875 L 302.0625 -724.96875 L 302.0625 -718.609375 C 287.226562 -714.796875 276.628906 -706 270.265625 -692.21875 C 263.910156 -678.4375 260.734375 -659.675781 260.734375 -635.9375 L 260.734375 -89.03125 C 260.734375 -65.707031 263.910156 -47.050781 270.265625 -33.0625 C 276.628906 -19.070312 287.226562 -10.171875 302.0625 -6.359375 L 302.0625 0 Z M 15.890625 0 "/></g></g></g><g fill="#231f20" fill-opacity="1"><g transform="translate(721.043605, 1082.123052)"><g><path d="M 28.609375 -362.484375 C 28.609375 -420.992188 37.085938 -473.457031 54.046875 -519.875 C 71.003906 -566.300781 94.21875 -605.625 123.6875 -637.84375 C 153.15625 -670.0625 186.96875 -694.648438 225.125 -711.609375 C 263.28125 -728.566406 303.765625 -737.046875 346.578125 -737.046875 C 363.960938 -737.046875 378.800781 -736.410156 391.09375 -735.140625 C 403.394531 -733.867188 415.054688 -732.488281 426.078125 -731 C 437.097656 -729.519531 448.859375 -728.144531 461.359375 -726.875 C 473.867188 -725.601562 488.601562 -724.96875 505.5625 -724.96875 C 511.925781 -724.96875 518.816406 -725.921875 526.234375 -727.828125 C 533.648438 -729.734375 539.054688 -732.804688 542.453125 -737.046875 L 548.8125 -737.046875 L 548.8125 -506.203125 L 542.453125 -506.203125 C 540.335938 -523.585938 536.203125 -542.132812 530.046875 -561.84375 C 523.898438 -581.5625 515.953125 -600.957031 506.203125 -620.03125 C 496.453125 -639.113281 484.898438 -656.5 471.546875 -672.1875 C 458.191406 -687.875 443.242188 -700.378906 426.703125 -709.703125 C 410.171875 -719.035156 392.15625 -723.703125 372.65625 -723.703125 C 348.070312 -723.703125 327.300781 -713.628906 310.34375 -693.484375 C 293.382812 -673.347656 279.601562 -646.109375 269 -611.765625 C 258.40625 -577.429688 250.664062 -538.75 245.78125 -495.71875 C 240.90625 -452.6875 238.46875 -408.0625 238.46875 -361.84375 C 238.46875 -325.382812 239.953125 -289.5625 242.921875 -254.375 C 245.890625 -219.1875 250.660156 -186.222656 257.234375 -155.484375 C 263.804688 -124.742188 272.390625 -97.710938 282.984375 -74.390625 C 293.585938 -51.078125 306.304688 -32.847656 321.140625 -19.703125 C 335.984375 -6.566406 353.15625 0 372.65625 0 C 388.769531 0 403.820312 -5.085938 417.8125 -15.265625 C 431.800781 -25.441406 444.625 -39.007812 456.28125 -55.96875 C 467.9375 -72.925781 478.425781 -91.578125 487.75 -111.921875 C 497.082031 -132.273438 505.351562 -152.625 512.5625 -172.96875 C 519.769531 -193.320312 525.8125 -212.1875 530.6875 -229.5625 C 535.5625 -246.945312 539.484375 -260.726562 542.453125 -270.90625 L 548.8125 -270.90625 L 548.8125 -40.0625 C 548.8125 -40.0625 544.992188 -37.410156 537.359375 -32.109375 C 529.734375 -26.816406 517.863281 -20.773438 501.75 -13.984375 C 485.644531 -7.203125 464.765625 -1.164062 439.109375 4.125 C 413.460938 9.425781 382.617188 12.078125 346.578125 12.078125 C 303.765625 12.078125 263.28125 3.597656 225.125 -13.359375 C 186.96875 -30.316406 153.15625 -54.90625 123.6875 -87.125 C 94.21875 -119.34375 71.003906 -158.660156 54.046875 -205.078125 C 37.085938 -251.503906 28.609375 -303.972656 28.609375 -362.484375 Z M 28.609375 -362.484375 "/></g></g></g><g fill="#231f20" fill-opacity="1"><g transform="translate(1279.392027, 1082.123052)"><g><path d="M 28.609375 -362.484375 C 28.609375 -420.992188 35.390625 -473.457031 48.953125 -519.875 C 62.523438 -566.300781 81.816406 -605.625 106.828125 -637.84375 C 131.847656 -670.0625 161.421875 -694.648438 195.546875 -711.609375 C 229.679688 -728.566406 267.097656 -737.046875 307.796875 -737.046875 C 348.492188 -737.046875 385.90625 -728.566406 420.03125 -711.609375 C 454.164062 -694.648438 483.738281 -670.0625 508.75 -637.84375 C 533.757812 -605.625 553.046875 -566.300781 566.609375 -519.875 C 580.179688 -473.457031 586.96875 -420.992188 586.96875 -362.484375 C 586.96875 -284.046875 575.097656 -216.847656 551.359375 -160.890625 C 527.617188 -104.929688 494.757812 -62.113281 452.78125 -32.4375 C 410.8125 -2.757812 362.484375 12.078125 307.796875 12.078125 C 253.523438 12.078125 205.296875 -2.757812 163.109375 -32.4375 C 120.929688 -62.113281 87.96875 -104.929688 64.21875 -160.890625 C 40.476562 -216.847656 28.609375 -284.046875 28.609375 -362.484375 Z M 238.46875 -361.84375 C 238.46875 -324.957031 238.679688 -288.921875 239.109375 -253.734375 C 239.535156 -218.546875 240.804688 -185.582031 242.921875 -154.84375 C 245.046875 -124.113281 248.546875 -97.191406 253.421875 -74.078125 C 258.296875 -50.972656 265.078125 -32.847656 273.765625 -19.703125 C 282.460938 -6.566406 293.804688 0 307.796875 0 C 321.785156 0 333.125 -6.566406 341.8125 -19.703125 C 350.507812 -32.847656 357.296875 -50.972656 362.171875 -74.078125 C 367.046875 -97.191406 370.539062 -124.113281 372.65625 -154.84375 C 374.78125 -185.582031 376.050781 -218.546875 376.46875 -253.734375 C 376.894531 -288.921875 377.109375 -324.957031 377.109375 -361.84375 C 377.109375 -398.726562 376.894531 -434.867188 376.46875 -470.265625 C 376.050781 -505.671875 374.78125 -538.742188 372.65625 -569.484375 C 370.539062 -600.222656 367.046875 -627.25 362.171875 -650.5625 C 357.296875 -673.882812 350.40625 -692.113281 341.5 -705.25 C 332.59375 -718.394531 321.359375 -724.96875 307.796875 -724.96875 C 294.222656 -724.96875 282.984375 -718.394531 274.078125 -705.25 C 265.179688 -692.113281 258.296875 -673.882812 253.421875 -650.5625 C 248.546875 -627.25 245.046875 -600.222656 242.921875 -569.484375 C 240.804688 -538.742188 239.535156 -505.671875 239.109375 -470.265625 C 238.679688 -434.867188 238.46875 -398.726562 238.46875 -361.84375 Z M 238.46875 -361.84375 "/></g></g></g><g fill="#231f20" fill-opacity="1"><g transform="translate(1875.896478, 1082.123052)"><g><path d="M 15.890625 -718.609375 L 15.890625 -724.96875 L 223.21875 -724.96875 L 524.640625 -207.953125 L 524.640625 -249.28125 C 524.640625 -280.65625 522.519531 -313.722656 518.28125 -348.484375 C 514.039062 -383.253906 508.101562 -418.019531 500.46875 -452.78125 C 492.84375 -487.550781 483.941406 -520.515625 473.765625 -551.671875 C 463.597656 -582.835938 452.257812 -610.820312 439.75 -635.625 C 427.238281 -660.425781 414.203125 -680.140625 400.640625 -694.765625 C 387.078125 -709.390625 373.296875 -717.335938 359.296875 -718.609375 L 359.296875 -724.96875 L 578.703125 -724.96875 L 578.703125 -718.609375 C 563.859375 -714.796875 553.253906 -706 546.890625 -692.21875 C 540.535156 -678.4375 537.359375 -659.675781 537.359375 -635.9375 L 537.359375 -89.03125 C 537.359375 -65.707031 540.535156 -47.050781 546.890625 -33.0625 C 553.253906 -19.070312 563.859375 -10.171875 578.703125 -6.359375 L 578.703125 0 L 402.546875 0 L 69.953125 -571.078125 L 69.953125 -536.734375 C 69.953125 -502.390625 71.960938 -466.140625 75.984375 -427.984375 C 80.015625 -389.828125 85.84375 -351.671875 93.46875 -313.515625 C 101.101562 -275.359375 110.21875 -238.789062 120.8125 -203.8125 C 131.414062 -168.84375 143.078125 -137.15625 155.796875 -108.75 C 168.515625 -80.34375 182.082031 -57.234375 196.5 -39.421875 C 210.914062 -21.617188 225.96875 -10.597656 241.65625 -6.359375 L 241.65625 0 L 15.890625 0 L 15.890625 -6.359375 C 30.734375 -10.171875 41.332031 -19.070312 47.6875 -33.0625 C 54.050781 -47.050781 57.234375 -65.707031 57.234375 -89.03125 L 57.234375 -635.9375 C 57.234375 -659.675781 54.050781 -678.4375 47.6875 -692.21875 C 41.332031 -706 30.734375 -714.796875 15.890625 -718.609375 Z M 15.890625 -718.609375 "/></g></g></g><g fill="#231f20" fill-opacity="1"><g transform="translate(2451.415049, 1082.123052)"><g><path d="M 15.890625 0 L 15.890625 -6.359375 C 30.734375 -10.171875 41.332031 -19.070312 47.6875 -33.0625 C 54.050781 -47.050781 57.234375 -65.707031 57.234375 -89.03125 L 57.234375 -635.9375 C 57.234375 -659.675781 54.050781 -678.4375 47.6875 -692.21875 C 41.332031 -706 30.734375 -714.796875 15.890625 -718.609375 L 15.890625 -724.96875 L 302.0625 -724.96875 L 302.0625 -718.609375 C 287.226562 -714.796875 276.628906 -706 270.265625 -692.21875 C 263.910156 -678.4375 260.734375 -659.675781 260.734375 -635.9375 L 260.734375 -89.03125 C 260.734375 -65.707031 263.910156 -47.050781 270.265625 -33.0625 C 276.628906 -19.070312 287.226562 -10.171875 302.0625 -6.359375 L 302.0625 0 Z M 15.890625 0 "/></g></g></g><g fill="#231f20" fill-opacity="1"><g transform="translate(2750.302864, 1082.123052)"><g><path d="M 28.609375 -362.484375 C 28.609375 -420.992188 37.085938 -473.457031 54.046875 -519.875 C 71.003906 -566.300781 94.21875 -605.625 123.6875 -637.84375 C 153.15625 -670.0625 186.96875 -694.648438 225.125 -711.609375 C 263.28125 -728.566406 303.765625 -737.046875 346.578125 -737.046875 C 363.960938 -737.046875 378.800781 -736.410156 391.09375 -735.140625 C 403.394531 -733.867188 415.054688 -732.488281 426.078125 -731 C 437.097656 -729.519531 448.859375 -728.144531 461.359375 -726.875 C 473.867188 -725.601562 488.601562 -724.96875 505.5625 -724.96875 C 511.925781 -724.96875 518.816406 -725.921875 526.234375 -727.828125 C 533.648438 -729.734375 539.054688 -732.804688 542.453125 -737.046875 L 548.8125 -737.046875 L 548.8125 -506.203125 L 542.453125 -506.203125 C 540.335938 -523.585938 536.203125 -542.132812 530.046875 -561.84375 C 523.898438 -581.5625 515.953125 -600.957031 506.203125 -620.03125 C 496.453125 -639.113281 484.898438 -656.5 471.546875 -672.1875 C 458.191406 -687.875 443.242188 -700.378906 426.703125 -709.703125 C 410.171875 -719.035156 392.15625 -723.703125 372.65625 -723.703125 C 348.070312 -723.703125 327.300781 -713.628906 310.34375 -693.484375 C 293.382812 -673.347656 279.601562 -646.109375 269 -611.765625 C 258.40625 -577.429688 250.664062 -538.75 245.78125 -495.71875 C 240.90625 -452.6875 238.46875 -408.0625 238.46875 -361.84375 C 238.46875 -325.382812 239.953125 -289.5625 242.921875 -254.375 C 245.890625 -219.1875 250.660156 -186.222656 257.234375 -155.484375 C 263.804688 -124.742188 272.390625 -97.710938 282.984375 -74.390625 C 293.585938 -51.078125 306.304688 -32.847656 321.140625 -19.703125 C 335.984375 -6.566406 353.15625 0 372.65625 0 C 388.769531 0 403.820312 -5.085938 417.8125 -15.265625 C 431.800781 -25.441406 444.625 -39.007812 456.28125 -55.96875 C 467.9375 -72.925781 478.425781 -91.578125 487.75 -111.921875 C 497.082031 -132.273438 505.351562 -152.625 512.5625 -172.96875 C 519.769531 -193.320312 525.8125 -212.1875 530.6875 -229.5625 C 535.5625 -246.945312 539.484375 -260.726562 542.453125 -270.90625 L 548.8125 -270.90625 L 548.8125 -40.0625 C 548.8125 -40.0625 544.992188 -37.410156 537.359375 -32.109375 C 529.734375 -26.816406 517.863281 -20.773438 501.75 -13.984375 C 485.644531 -7.203125 464.765625 -1.164062 439.109375 4.125 C 413.460938 9.425781 382.617188 12.078125 346.578125 12.078125 C 303.765625 12.078125 263.28125 3.597656 225.125 -13.359375 C 186.96875 -30.316406 153.15625 -54.90625 123.6875 -87.125 C 94.21875 -119.34375 71.003906 -158.660156 54.046875 -205.078125 C 37.085938 -251.503906 28.609375 -303.972656 28.609375 -362.484375 Z M 28.609375 -362.484375 "/></g></g></g><g clip-path="url(#389aa86dd2)"><path fill="#ffffff" d="M 749.316406 638.144531 L 2713.488281 638.144531 L 2713.488281 788.511719 L 749.316406 788.511719 Z M 749.316406 638.144531 " fill-opacity="1" fill-rule="nonzero"/></g><g fill="#231f20" fill-opacity="1"><g transform="translate(828.18006, 740.384859)"><g><path d="M 9.109375 0 L 9.109375 -75.875 L 26.34375 -75.875 L 26.34375 -16.15625 L 59.5 -16.15625 L 59.5 0 Z M 9.109375 0 "/></g></g></g><g fill="#231f20" fill-opacity="1"><g transform="translate(1223.934698, 745.238643)"><g><path d="M 0.96875 0 L 31.109375 -75.875 L 48.015625 -75.875 L 78.15625 0 L 59.71875 0 L 54.625 -13.109375 L 24.5 -13.109375 L 19.40625 0 Z M 28.9375 -26.671875 L 50.296875 -26.671875 L 39.5625 -54.40625 Z M 28.9375 -26.671875 "/></g></g></g><g fill="#231f20" fill-opacity="1"><g transform="translate(1696.639617, 745.238643)"><g><path d="M 28.9375 0 L 28.9375 -26.5625 L 0.96875 -75.875 L 20.59375 -75.875 L 30.03125 -58.3125 L 37.609375 -44.546875 L 45.09375 -58.3125 L 54.40625 -75.875 L 74.03125 -75.875 L 46.171875 -26.765625 L 46.171875 0 Z M 28.9375 0 "/></g></g></g><g fill="#231f20" fill-opacity="1"><g transform="translate(2134.358804, 740.384859)"><g><path d="M 9.109375 0 L 9.109375 -75.875 L 58.96875 -75.875 L 58.96875 -61.34375 L 26.234375 -61.34375 L 26.234375 -45.625 L 56.03125 -45.625 L 56.03125 -31.21875 L 26.234375 -31.21875 L 26.234375 -14.625 L 60.15625 -14.625 L 60.15625 0 Z M 9.109375 0 "/></g></g></g><g fill="#231f20" fill-opacity="1"><g transform="translate(2573.721654, 745.238643)"><g><path d="M 9.109375 0 L 9.109375 -75.875 L 41.515625 -75.875 C 47.296875 -75.875 52.316406 -74.828125 56.578125 -72.734375 C 60.835938 -70.640625 64.125 -67.640625 66.4375 -63.734375 C 68.75 -59.828125 69.90625 -55.164062 69.90625 -49.75 C 69.90625 -44.1875 68.640625 -39.398438 66.109375 -35.390625 C 63.585938 -31.378906 60.050781 -28.363281 55.5 -26.34375 L 71.21875 0 L 51.265625 0 L 37.71875 -23.625 L 26.34375 -23.625 L 26.34375 0 Z M 26.125 -38.15625 L 39.234375 -38.15625 C 43.492188 -38.15625 46.765625 -39.144531 49.046875 -41.125 C 51.328125 -43.113281 52.46875 -45.953125 52.46875 -49.640625 C 52.46875 -53.328125 51.328125 -56.160156 49.046875 -58.140625 C 46.765625 -60.128906 43.492188 -61.125 39.234375 -61.125 L 26.125 -61.125 Z M 26.125 -38.15625 "/></g></g></g></svg>